 http://img807.imageshack.us/img807/9376/legendary2010.jpg

Country.......: USA
Genre.........: Drama, Sport
Date release..: 09.09.2010 [World]
Director......: Mel Damski
Writers.......: John Posey
Duration......: 103 min.
More..........: http://www.imdb.com/title/tt1563704
Trailer.......: http://www.imdb.com/video/imdb/vi3050374681
Trailer.......:

Pilot :
A book-smart teenager joins his school's wrestling team as a way to reunite his surviving family members, who split apart after the death of his father, a college wrestling legend, 10 years ago. 

Cats :
John Cena   	 ...  	Mike Chetley
Patricia Clarkson 	... 	Sharon Chetley
Devon Graye 	... 	Cal Chetley
Vince Antoine 	... 	Claremont Coach
Alex Arceneaux 	... 	Band Member #1
Jonathan Arceneaux 	... 	Band Member #2
Robert Bryan 	... 	3rd Kid
Courtney J. Clark 	... 	Lori
Patrick Cox 	... 	Guy | Son of a bitch
Jack Craft 	... 	Band Member #3
Sam Craft 	... 	Band Leader | Band Member #4
Daurice Cummings 	... 	Guest
Sean Michael Cunningham 	... 	Boy #1
J.D. Evermore 	... 	Terry Jay
Danny Glover 	... 	Harry Red Newman 

Data Technical :
!!! SAMPLE !!!
Audio.....: Lector Polish
Subtitles.: None
Format                           : AVI
Format/Info                      : Audio Video Interleave
File size                        : 700 MiB
Duration                         : 1h 42mn
Overall bit rate                 : 952 Kbps
Writing application              : VirtualDubMod 1.5.10.2 (build 2540/release)
Writing library                  : VirtualDub build 32817/release
Video
ID                               : 0
Format                           : MPEG-4 Visual
Format profile                   : Advanced Simple@L5
Format settings, BVOP            : Yes
Format settings, QPel            : No
Format settings, GMC             : No warppoints
Format settings, Matrix          : Default (H.263)
Codec ID                         : XVID
Codec ID/Hint                    : XviD
Duration                         : 1h 42mn
Bit rate                         : 830 Kbps
Width                            : 640 pixels
Height                           : 352 pixels
Display aspect ratio             : 16:9
Frame rate                       : 25.000 fps
Original frame rate              : 23.976 fps
Color space                      : YUV
Chroma subsampling               : 4:2:0
Bit depth                        : 8 bits
Scan type                        : Progressive
Bits/(Pixel*Frame)               : 0.147
Stream size                      : 610 MiB (87%)
Writing library                  : XviD 1.1.0 (UTC 2005-11-22)
Audio
ID                               : 1
Format                           : MPEG Audio
Format version                   : Version 1
Format profile                   : Layer 3
Mode                             : Joint stereo
Mode extension                   : MS Stereo
Codec ID                         : 55
Codec ID/Hint                    : MP3
Duration                         : 1h 42mn
Bit rate mode                    : Constant
Bit rate                         : 112 Kbps
Channel(s)                       : 2 channels
Sampling rate                    : 48.0 KHz
Stream size                      : 82.4 MiB (12%)
Alignment                        : Aligned on interleaves
Interleave, duration             : 40 ms (1.00 video frame)
Interleave, preload duration     : 504 ms

Screen : 
http://img29.imageshack.us/img29/6774/legendary2010s1.jpg 
http://img851.imageshack.us/img851/6697/legendary2010s2.jpg 
http://img821.imageshack.us/img821/9342/legendary2010s3.jpg 
http://img839.imageshack.us/img839/1814/legendary2010s4.jpg 
http://img854.imageshack.us/img854/8397/legendary2010s5.jpg